<svg
   version="1.1"
   id="svg228"
   width="160"
   height="160"
   viewBox="0 0 160 160"
   xml:space="preserve"
   xmlns="http://www.w3.org/2000/svg"
   xmlns:svg="http://www.w3.org/2000/svg"><defs
     id="defs232" />
     <style>
      #loading-background {
        fill:#744ef9;
        fill-opacity:1;
        stroke-width:0
      }
      #loading-cross {

      }
      #loading-cross {
        fill: #fcb614;
        animation: flip 8s infinite;
        transform-origin: center;
      }
      @keyframes flip {
          0% { transform: rotate(0deg); }
        100% { transform: rotate(360deg); }
      }
    </style>
    <g id="g234" transform="translate(6.4713843,5.2367325)">
      <path
       style="fill:#fcb614;fill-opacity:1;stroke-width:0.910381"
       d="m 64.217784,126.53232 -0.248131,-16.50928 -8.964752,15.61504 -8.964752,15.61504 -5.146104,-2.93228 c -2.830356,-1.61276 -6.270106,-3.56595 -7.643887,-4.34044 -1.37378,-0.77448 -2.500373,-1.67992 -2.503538,-2.01207 -0.0032,-0.33215 3.453717,-6.5641 7.68196,-13.84877 10.668817,-18.380845 10.145487,-17.30628 7.823117,-16.06339 -1.058291,0.56639 -7.884345,4.48926 -15.16901,8.7175 -7.284663,4.22824 -13.516607,7.68513 -13.848762,7.68197 -0.332155,-0.003 -1.237589,-1.12976 -2.012074,-2.50354 -0.774485,-1.37379 -2.727681,-4.81353 -4.340434,-7.64388 L 7.9491384,103.16211 23.564048,94.197355 39.178955,85.232603 22.214619,84.98492 5.2502836,84.737237 V 75.674084 66.610931 L 21.633785,66.3628 38.017285,66.114669 23.026218,57.505525 8.0351504,48.89638 11.348268,42.93948 c 4.667172,-8.391458 5.1652,-9.143224 6.057177,-9.143224 0.435957,0 7.506638,3.875498 15.712623,8.612218 8.205985,4.736719 14.919973,8.482274 14.919973,8.323454 0,-0.15882 -3.891865,-7.003473 -8.648588,-15.210342 -4.756725,-8.206868 -8.64859,-15.186099 -8.64859,-15.509402 0,-0.323304 3.369364,-2.496781 7.487475,-4.829951 6.609785,-3.74486 7.611139,-4.073005 8.542446,-2.799365 0.580237,0.793518 4.68735,7.782877 9.126922,15.531909 l 8.071947,14.089146 0.246839,-17.759501 0.24684,-17.7595007 h 9.084533 9.084533 V 24.00758 41.530238 l 8.678473,-14.973139 c 4.773162,-8.235227 8.833539,-15.128207 9.023069,-15.317734 0.57127,-0.571281 15.07206,8.083681 15.07206,8.995939 0,0.717211 -9.47934,17.580248 -15.792561,28.093791 l -1.893401,3.153117 3.153112,-1.893398 c 10.51356,-6.313222 27.37658,-15.792558 28.0938,-15.792558 0.46516,0 2.78493,3.361995 5.15507,7.471099 3.45045,5.982072 4.05602,7.627026 3.0384,8.253451 -0.699,0.430294 -7.62081,4.439981 -15.38177,8.910415 l -14.11087,8.128064 17.06959,0.0053 17.06958,0.0053 v 9.08412 9.084121 l -17.30442,0.247252 -17.30443,0.247253 14.08927,8.071947 c 7.74908,4.439573 14.7385,8.546682 15.53201,9.126912 1.2735,0.93122 0.94179,1.93922 -2.82735,8.59186 -3.21051,5.66664 -4.62853,7.39935 -5.71447,6.98263 -0.79439,-0.30483 -6.98558,-3.75294 -13.7582,-7.66245 -6.77261,-3.90952 -13.22395,-7.5824 -14.33632,-8.16194 -1.506422,-0.78485 0.17768,2.75787 6.60024,13.88445 4.74249,8.21598 8.62272,15.31187 8.62272,15.76865 0,0.62214 -10.86491,7.45719 -14.5449,9.15011 -0.26199,0.12053 -4.368203,-6.52048 -9.124924,-14.7578 l -8.648589,-14.97693 -0.2486,15.89576 -0.248602,15.89578 h -9.062236 -9.062234 z"
       id="loading-cross" />
    </g>
  </svg>