<svg xmlns="http://www.w3.org/2000/svg" xmlns:xlink="http://www.w3.org/1999/xlink" viewBox="0 0 150 150" width="150" height="150" preserveAspectRatio="xMidYMid meet" style="width: 100%; height: 100%; transform: translate3d(0px, 0px, 0px); content-visibility: visible;"><defs><clipPath id="__lottie_element_2"><rect width="150" height="150" x="0" y="0"></rect></clipPath><clipPath id="__lottie_element_4"><path d="M0,0 L2160,0 L2160,2160 L0,2160z"></path></clipPath></defs><g clip-path="url(#__lottie_element_2)"><g clip-path="url(#__lottie_element_4)" transform="matrix(0.11500000208616257,0,0,0.11500000208616257,-48.20000457763672,-49.20000457763672)" opacity="1" style="display: block;"><g transform="matrix(1,0,0,1,96,472)" opacity="1" style="display: block;"><g opacity="1" transform="matrix(1,0,0,1,972.1409912109375,683.8909912109375)"><path fill="rgb(252,182,20)" fill-opacity="1" d=" M665.927001953125,18.493999481201172 C665.927001953125,18.493999481201172 -665.927001953125,18.493999481201172 -665.927001953125,18.493999481201172 C-665.927001953125,18.493999481201172 -665.85302734375,-146.49400329589844 -665.85302734375,-146.49400329589844 C-665.85302734375,-146.49400329589844 666,-146.49400329589844 666,-146.49400329589844 C666,-146.49400329589844 665.927001953125,18.493999481201172 665.927001953125,18.493999481201172z"></path></g><g opacity="1" transform="matrix(1,0,0,1,0,0)"><path fill="rgb(252,182,20)" fill-opacity="1" d=" M3008,194"></path></g></g><g transform="matrix(0.866025447845459,-0.4999999701976776,0.4999999701976776,0.866025447845459,-83.698486328125,1041.1380615234375)" opacity="1" style="display: block;"><g opacity="1" transform="matrix(1,0,0,1,972.1409912109375,683.8909912109375)"><path fill="rgb(252,182,20)" fill-opacity="1" d=" M665.927001953125,18.493999481201172 C665.927001953125,18.493999481201172 -665.927001953125,18.493999481201172 -665.927001953125,18.493999481201172 C-665.927001953125,18.493999481201172 -665.85302734375,-146.49400329589844 -665.85302734375,-146.49400329589844 C-665.85302734375,-146.49400329589844 666,-146.49400329589844 666,-146.49400329589844 C666,-146.49400329589844 665.927001953125,18.493999481201172 665.927001953125,18.493999481201172z"></path></g></g><g transform="matrix(0.5,-0.8660253882408142,0.8660253882408142,0.5,45.2470703125,1623.87548828125)" opacity="1" style="display: block;"><g opacity="1" transform="matrix(1,0,0,1,972.1409912109375,683.8909912109375)"><path fill="rgb(252,182,20)" fill-opacity="1" d=" M665.927001953125,18.493999481201172 C665.927001953125,18.493999481201172 -665.927001953125,18.493999481201172 -665.927001953125,18.493999481201172 C-665.927001953125,18.493999481201172 -665.85302734375,-146.49400329589844 -665.85302734375,-146.49400329589844 C-665.85302734375,-146.49400329589844 666,-146.49400329589844 666,-146.49400329589844 C666,-146.49400329589844 665.927001953125,18.493999481201172 665.927001953125,18.493999481201172z"></path></g></g><g transform="matrix(0,-1,1,0,448.28594970703125,2064.06787109375)" opacity="1" style="display: block;"><g opacity="1" transform="matrix(1,0,0,1,972.1409912109375,683.8909912109375)"><path fill="rgb(252,182,20)" fill-opacity="1" d=" M665.927001953125,18.493999481201172 C665.927001953125,18.493999481201172 -665.927001953125,18.493999481201172 -665.927001953125,18.493999481201172 C-665.927001953125,18.493999481201172 -665.85302734375,-146.49400329589844 -665.85302734375,-146.49400329589844 C-665.85302734375,-146.49400329589844 666,-146.49400329589844 666,-146.49400329589844 C666,-146.49400329589844 665.927001953125,18.493999481201172 665.927001953125,18.493999481201172z"></path></g></g><g transform="matrix(-0.4999998211860657,-0.8660255074501038,0.8660255074501038,-0.4999998211860657,1017.4239501953125,2243.7666015625)" opacity="1" style="display: block;"><g opacity="1" transform="matrix(1,0,0,1,972.1409912109375,683.8909912109375)"><path fill="rgb(252,182,20)" fill-opacity="1" d=" M665.927001953125,18.493999481201172 C665.927001953125,18.493999481201172 -665.927001953125,18.493999481201172 -665.927001953125,18.493999481201172 C-665.927001953125,18.493999481201172 -665.85302734375,-146.49400329589844 -665.85302734375,-146.49400329589844 C-665.85302734375,-146.49400329589844 666,-146.49400329589844 666,-146.49400329589844 C666,-146.49400329589844 665.927001953125,18.493999481201172 665.927001953125,18.493999481201172z"></path></g></g><g transform="matrix(-0.8660253882408142,-0.5,0.5,-0.8660253882408142,1600.1614990234375,2114.82080078125)" opacity="1" style="display: block;"><g opacity="1" transform="matrix(1,0,0,1,972.1409912109375,683.8909912109375)"><path fill="rgb(252,182,20)" fill-opacity="1" d=" M665.927001953125,18.493999481201172 C665.927001953125,18.493999481201172 -665.927001953125,18.493999481201172 -665.927001953125,18.493999481201172 C-665.927001953125,18.493999481201172 -665.85302734375,-146.49400329589844 -665.85302734375,-146.49400329589844 C-665.85302734375,-146.49400329589844 666,-146.49400329589844 666,-146.49400329589844 C666,-146.49400329589844 665.927001953125,18.493999481201172 665.927001953125,18.493999481201172z"></path></g></g></g></g></svg>